<svg width="259" height="67" viewBox="0 0 259 67" fill="none" xmlns="http://www.w3.org/2000/svg">
<g clip-path="url(#clip0_5_303)">
<g clip-path="url(#clip1_5_303)">
<path fill-rule="evenodd" clip-rule="evenodd" d="M248.739 2.75067H230.917H213.095C205.917 2.75067 203.735 0 203.735 0H202.834V15.7213H203.802C203.802 15.7213 202.272 3.86883 213.163 3.86883H227.384V58.8598C227.384 58.8598 227.654 65.1215 220.589 65.0544V65.6135H241.246V65.0544C234.18 65.1439 234.45 58.8598 234.45 58.8598V3.86883H248.671C259.562 3.86883 258.032 15.7213 258.032 15.7213H259V0H258.1C258.1 0 255.917 2.75067 248.739 2.75067ZM83.5955 60.1792V9.1689C83.5955 2.34813 76.9348 3.44393 76.9348 3.44393V2.75067H124.999V11.2263H124.167C124.594 3.24266 114.671 3.37684 114.671 3.37684H90.6836V33.5447H112.803C119.801 33.5447 121.197 27.4172 121.197 27.4172H122.029V40.4549H121.197C120.927 33.6342 112.803 34.4616 112.803 34.4616H90.6836V59.7543C90.6836 65.0097 95.4766 64.5848 95.4766 64.5848H116.134C124.392 64.5848 126.462 56.9366 126.462 56.9366L127.227 56.8695L124.932 65.4122H76.9348V64.719C83.7305 65.4122 83.5955 60.1792 83.5955 60.1792ZM12.3087 2.84015L58.7757 56.8024V10.9803C58.7757 7.58114 58.2356 6.5748 56.7955 5.0541C55.3553 3.53341 51.1924 3.57813 51.1924 3.57813V2.84015H67.4615V3.57813L63.6811 4.13721C59.6083 4.65156 59.8333 10.9356 59.8333 10.9356V67H58.7757L12.3087 12.9483V54.4096C12.3087 54.4096 12.0387 61.4987 14.0639 63.243C16.1116 64.9874 19.8019 64.7414 19.8019 64.7414V65.5017H3.78036V64.8084C3.78036 64.8084 6.54813 64.8755 9.04587 63.489C11.5436 62.1025 11.3861 54.3872 11.3861 54.3872V12.0314C11.3861 12.0314 7.40321 7.58114 5.55804 5.83681C3.71286 4.09249 0 3.57813 0 3.57813V2.84015H12.3087ZM167.461 31.1519L180.58 12.747C180.58 12.747 182.178 10.8238 182.38 8.54273C182.583 6.26169 179.545 3.44393 176.62 3.57811V2.75067H193.609V3.6452C193.609 3.6452 189.446 3.51102 185.351 8.34146C181.255 13.1719 180.152 14.8268 180.152 14.8268L167.799 31.9122L183.618 55.2146C183.618 55.2146 187.353 60.4476 188.546 61.6328C189.716 62.7957 192.979 64.9426 197.277 64.7413V65.6358H173.064V64.8084C173.064 64.8084 175.562 64.8755 176.665 63.9139C177.767 62.9523 178.667 61.0961 176.935 58.3231C175.202 55.5724 163.613 37.5701 163.613 37.5701L152.452 53.4256C152.452 53.4256 149.82 57.2944 149.617 58.6585C149.415 60.0451 150.45 64.4506 155.985 64.786V65.6135H135.171V64.786C135.171 64.786 136.341 64.8531 137.466 64.5848C138.568 64.3164 144.757 62.5945 148.087 57.8982C151.417 53.2019 163.141 36.9439 163.141 36.9439L146.557 11.9867C146.557 11.9867 143.564 6.82076 140.931 5.50134C138.298 4.18191 137.038 3.71229 135.171 3.6452V2.75067H158.483V3.57811C158.483 3.57811 155.355 3.51102 153.847 5.03171C152.317 6.55241 153.42 9.99633 155.175 12.4786C156.908 14.961 167.461 31.1519 167.461 31.1519Z" fill="#231F20"/>
</g>
</g>
<defs>
<clipPath id="clip0_5_303">
<rect width="259" height="67" fill="white"/>
</clipPath>
<clipPath id="clip1_5_303">
<rect width="259" height="67" fill="white"/>
</clipPath>
</defs>
</svg>
